<svg width="236" height="24" viewBox="0 0 236 24" fill="none" xmlns="http://www.w3.org/2000/svg">
<path d="M204.136 22.6869H203.17V5.07466C203.741 4.95984 204.16 5.024 204.551 5.58462C206.53 8.39109 208.567 11.1537 210.583 13.9331C210.694 14.0851 210.806 14.2337 210.948 14.4296C211.306 13.9399 211.633 13.4907 211.961 13.0415C213.775 10.5525 215.608 8.08039 217.378 5.56436C217.766 5.01387 218.185 4.98348 218.756 5.06453V22.6734H217.797V6.922C217.766 6.90849 217.733 6.89498 217.702 6.88148C215.463 9.95475 213.224 13.028 210.948 16.1519C208.685 13.0348 206.449 9.95475 204.136 6.76665V22.6869Z" fill="white"></path>
<path d="M169.908 5.07789C169.982 5.05763 170.019 5.03736 170.056 5.03736C172.191 5.05087 174.332 4.9732 176.46 5.10153C180.397 5.33794 183.629 8.24235 184.423 12.1126C185.375 16.7462 182.464 21.3561 177.865 22.4604C177.257 22.6057 176.622 22.6901 175.997 22.7002C174.069 22.7306 172.137 22.7104 170.208 22.7104C170.117 22.7104 170.023 22.6935 169.904 22.6833V5.07789H169.908ZM170.901 21.7647C172.552 21.7647 174.153 21.7715 175.75 21.7614C176.146 21.7614 176.544 21.7343 176.936 21.6736C180.999 21.0488 183.93 17.3811 183.623 13.3048C183.315 9.21161 179.901 6.02689 175.788 5.99987C174.281 5.98974 172.778 5.99987 171.272 5.99987C171.154 5.99987 171.036 6.01338 170.904 6.02351V21.7681L170.901 21.7647Z" fill="white"></path>
<path d="M130.618 22.7104C130.287 22.7104 130.007 22.7475 129.747 22.6935C129.619 22.6665 129.477 22.4942 129.423 22.3524C128.778 20.7111 128.139 19.0697 127.525 17.4183C127.396 17.0772 127.231 16.9792 126.873 16.9826C124.424 16.9995 121.973 17.0029 119.524 16.9826C119.119 16.9792 118.96 17.1244 118.832 17.4757C118.258 19.0393 117.64 20.5895 117.076 22.1565C116.924 22.582 116.731 22.8049 116.262 22.7171C116.12 22.6901 115.968 22.7137 115.769 22.7137C116.201 21.5858 116.609 20.5152 117.018 19.448C118.818 14.7705 120.625 10.0931 122.415 5.41224C122.53 5.11505 122.672 5.02386 122.976 5.03062C123.833 5.0475 123.833 5.034 124.141 5.83777C126.245 11.3089 128.352 16.7766 130.456 22.2477C130.503 22.3726 130.544 22.5044 130.615 22.7104H130.618ZM126.961 16.0066C125.708 12.7509 124.468 9.5257 123.188 6.19576C121.908 9.52908 120.669 12.7509 119.416 16.0066H126.957H126.961Z" fill="white"></path>
<path d="M151.681 22.7104C152.198 21.3663 152.687 20.0931 153.177 18.8199C154.889 14.3721 156.605 9.92428 158.307 5.46972C158.435 5.13538 158.587 5.01042 158.952 5.02393C159.749 5.05432 159.752 5.03406 160.036 5.77367C162.15 11.2684 164.268 16.7631 166.382 22.2579C166.429 22.3828 166.47 22.5112 166.537 22.7071C166.21 22.7071 165.926 22.7375 165.652 22.6935C165.534 22.6733 165.403 22.5112 165.352 22.3828C164.714 20.755 164.075 19.1272 163.471 17.4859C163.332 17.1076 163.163 16.9725 162.748 16.9793C160.286 17.0029 157.821 16.9962 155.359 16.9827C155.051 16.9827 154.91 17.0671 154.801 17.3677C154.207 18.982 153.565 20.5828 152.981 22.2005C152.833 22.6125 152.637 22.778 152.218 22.7138C152.073 22.6902 151.921 22.7104 151.691 22.7104H151.681ZM162.876 16.01C161.623 12.7544 160.384 9.52576 159.101 6.19245C157.821 9.52576 156.581 12.751 155.328 16.01H162.873H162.876Z" fill="white"></path>
<path d="M198.766 22.6936H188.185V5.06116H198.759V5.98989H189.202V11.3698H197.554V12.3222H189.205V21.7615H198.763V22.6902L198.766 22.6936Z" fill="white"></path>
<path d="M147.652 19.2421C147.905 19.4718 148.135 19.6778 148.364 19.8872C146.166 22.5416 142.282 23.7169 138.594 22.5552C134.677 21.3225 132.174 17.746 132.211 13.538C132.245 9.69132 134.916 6.04055 138.587 4.96659C142.326 3.86899 146.078 4.90918 148.361 7.63122C148.131 7.84061 147.902 8.04999 147.645 8.28302C145.72 6.24656 143.376 5.25703 140.58 5.53396C138.435 5.74673 136.632 6.70586 135.23 8.34719C132.363 11.7041 132.569 16.5944 135.676 19.6609C138.858 22.7983 144.207 22.9874 147.652 19.2421Z" fill="white"></path>
<path d="M236 5.07792C235.672 5.53723 235.368 5.96613 235.058 6.39166C233.413 8.67804 231.762 10.9644 230.13 13.2576C229.999 13.4399 229.914 13.7 229.914 13.9262C229.901 16.6753 229.904 19.4277 229.904 22.1802V22.6868H228.915V22.2072C228.915 19.4548 228.921 16.7057 228.904 13.9533C228.904 13.7033 228.81 13.4129 228.665 13.2069C226.827 10.6031 224.97 8.01273 223.119 5.41902C223.048 5.32108 222.984 5.21639 222.913 5.1117C223.622 4.87867 224.004 4.99349 224.406 5.55749C225.993 7.78645 227.581 10.0154 229.168 12.241C229.246 12.3491 229.33 12.4538 229.431 12.5889C229.516 12.4875 229.587 12.4099 229.644 12.3288C231.225 10.1134 232.835 7.91817 234.362 5.66556C234.804 5.01376 235.294 4.95972 236 5.07455V5.07792Z" fill="white"></path>
<path d="M35.416 22.9831V4.35828C35.5426 4.35828 35.6622 4.35828 35.7818 4.35828C37.9204 4.35828 40.059 4.35828 42.1976 4.35828C45.6905 4.35828 47.9803 7.72095 46.7105 10.9746C46.6824 11.0449 46.6542 11.1153 46.6402 11.154C47.0939 11.5303 47.5688 11.868 47.9733 12.2725C51.1144 15.3995 50.1013 20.6827 46.0387 22.459C45.2332 22.8108 44.3996 22.9902 43.5237 22.9937C40.9103 22.9937 38.2968 22.9937 35.6833 22.9937C35.6095 22.9937 35.5321 22.9867 35.4195 22.9796L35.416 22.9831ZM38.9018 19.5396C38.9792 19.5431 39.0425 19.5536 39.1058 19.5536C40.5867 19.5536 42.0675 19.5536 43.5519 19.5536C43.6468 19.5536 43.7418 19.5466 43.8368 19.5325C45.3809 19.2863 46.4291 17.9743 46.3166 16.4266C46.2146 14.995 44.9272 13.8589 43.4006 13.8554C42.0042 13.8554 40.6078 13.8554 39.2113 13.8554C39.1093 13.8554 39.0108 13.8554 38.8983 13.8554V19.5396H38.9018ZM38.9018 10.4153C39.0073 10.4188 39.0988 10.4294 39.1902 10.4294C40.1892 10.4294 41.1846 10.4294 42.1836 10.4294C42.9891 10.4294 43.5765 9.88066 43.58 9.12793C43.58 8.38223 42.968 7.80185 42.1695 7.80185C41.1706 7.80185 40.1751 7.80185 39.1762 7.80185H38.9018V10.4188V10.4153Z" fill="#36E0D6"></path>
<path d="M62.3632 22.9973C56.8971 22.92 52.5812 18.5619 52.648 13.1872C52.7113 7.81607 57.1503 3.46147 62.437 3.51775C67.8785 3.57403 72.321 8.0447 72.1452 13.6023C71.9834 18.794 67.7167 22.9973 62.3632 22.9973ZM56.1689 13.2716C56.1654 16.6871 58.9407 19.5256 62.2928 19.5327C65.8032 19.5397 68.5996 16.7785 68.6172 13.2927C68.6312 9.91246 65.8278 7.02112 62.5285 7.01409C58.9759 7.00705 56.176 9.76473 56.1689 13.2716Z" fill="#36E0D6"></path>
<path d="M8.70919 13.4545C11.0166 16.6342 13.303 19.7824 15.6174 22.9692C15.4943 22.9797 15.4134 22.9938 15.336 22.9938C14.1401 22.9938 12.9407 22.9938 11.7447 23.0008C11.5513 23.0008 11.4387 22.934 11.3262 22.7792C9.2368 19.8949 7.14041 17.0177 5.05105 14.1333C4.91738 13.9469 4.7802 13.8801 4.55861 13.8906C4.18224 13.9082 3.80236 13.8942 3.39785 13.8942V22.9727H0V4.37596C0.0984884 4.36893 0.196977 4.36189 0.298983 4.35837C2.3989 4.35837 4.49881 4.35486 6.59872 4.35837C8.78657 4.36189 10.7176 5.84625 11.2629 7.93561C11.8081 10.0215 10.8583 12.2269 8.94837 13.3103C8.87451 13.3525 8.80416 13.3947 8.70919 13.451V13.4545ZM3.4084 10.4858C4.4777 10.4858 5.52942 10.4928 6.58113 10.4858C7.39718 10.4787 7.99866 9.88779 7.99866 9.12451C7.99866 8.34364 7.39015 7.77381 6.54948 7.77029C5.59977 7.77029 4.65006 7.77029 3.70035 7.77029C3.6089 7.77029 3.51393 7.77733 3.40488 7.78436V10.4893L3.4084 10.4858Z" fill="#36E0D6"></path>
<path d="M95.3462 12.765C95.3462 17.9287 91.5861 22.2094 86.5632 22.9058C81.8744 23.5566 76.6932 20.6969 75.339 15.2308C74.3717 11.337 75.8596 7.14418 79.0886 4.75583C79.8062 4.2247 80.777 4.28801 81.3468 4.90005C81.9729 5.5754 81.9799 6.52159 81.3644 7.22859C80.8333 7.83711 80.267 8.41397 79.7815 9.05415C79.1695 9.85964 78.7087 10.7601 78.5329 11.7731C77.9877 14.9037 79.8343 18.0623 82.8417 19.1809C86.9642 20.711 91.4806 17.9357 91.9167 13.56C92.1594 11.133 91.2871 9.1245 89.4018 7.57682C88.8319 7.109 88.4767 6.56732 88.6103 5.80755C88.8354 4.51665 90.267 3.95737 91.3082 4.75583C92.9614 6.02563 94.0905 7.67179 94.7799 9.62749C95.1457 10.6651 95.3603 11.7309 95.3427 12.7615L95.3462 12.765Z" fill="#36E0D6"></path>
<path d="M18.6425 4.37598H30.8726V7.76327H22.1529V10.4963H29.7541V13.9716H22.1599V19.5186H30.6405V22.9762H18.6425V4.37598Z" fill="#36E0D6"></path>
<path d="M105.906 22.976H102.385V7.81933H97.8367V4.37927H110.454V7.8123H105.909V22.9795L105.906 22.976Z" fill="#36E0D6"></path>
<path d="M86.8834 6.919C86.8834 8.33301 86.8904 9.75054 86.8834 11.1646C86.8799 12.058 86.2221 12.758 85.3392 12.8389C84.481 12.9162 83.686 12.3112 83.5242 11.4495C83.5066 11.3475 83.4996 11.2419 83.4996 11.1364C83.4996 8.34357 83.4961 5.55072 83.4996 2.75787C83.4996 1.53732 84.6252 0.710716 85.7402 1.0906C86.4296 1.32627 86.8799 1.96644 86.8799 2.72973C86.8834 4.12615 86.8799 5.52258 86.8799 6.919H86.8834Z" fill="#36E0D6"></path>
</svg>